<svg xmlns="http://www.w3.org/2000/svg" viewBox="0 0 16 16" fill="none" shape-rendering="crispEdges" width="200" height="200"><metadata xmlns:rdf="http://www.w3.org/1999/02/22-rdf-syntax-ns#" xmlns:xsi="http://www.w3.org/2001/XMLSchema-instance" xmlns:dc="http://purl.org/dc/elements/1.1/" xmlns:dcterms="http://purl.org/dc/terms/"><rdf:RDF><rdf:Description><dc:title>Pixel Art</dc:title><dc:creator>DiceBear</dc:creator><dc:source xsi:type="dcterms:URI">https://www.figma.com/community/file/1198754108850888330</dc:source><dcterms:license xsi:type="dcterms:URI">https://creativecommons.org/publicdomain/zero/1.0/</dcterms:license><dc:rights>„Pixel Art” (https://www.figma.com/community/file/1198754108850888330) by „DiceBear”, licensed under „CC0 1.0” (https://creativecommons.org/publicdomain/zero/1.0/)</dc:rights></rdf:Description></rdf:RDF></metadata><mask id="viewboxMask"><rect width="16" height="16" rx="0" ry="0" x="0" y="0" fill="#fff" /></mask><g mask="url(#viewboxMask)"><rect fill="#ffffff" width="16" height="16" x="0" y="0" /><path d="M4 2h8v1h1v3h1v2h-1v3h-1v1H9v1h4v1h1v2H2v-2h1v-1h4v-1H4v-1H3V8H2V6h1V3h1V2Z" fill="#cb9e6e"/><path d="M4 2h8v1h1v3h1v2h-1v3h-1v1H4v-1H3V8H2V6h1V3h1V2Z" fill="#fff" fill-opacity=".1"/><path fill="#d3d3d3" d="M13 7h1v2h-1zM2 7h1v2H2z"/><path fill="#fff" fill-opacity=".5" d="M2 7h1v1H2zM13 7h1v1h-1z"/><path d="M4 13h2v1h1v1h2v-1h1v-1h2v1h1v2H3v-2h1v-1Z" fill="#ffeead"/><path fill="#fff" d="M12 5H9v3h3zM7 5H4v3h3z"/><path fill="#647b90" d="M12 6h-2v1h2zM7 6H5v1h2z"/><path fill="#fff" fill-opacity=".7" d="M12 6h-1v1h1zM7 6H6v1h1z"/><path d="M7 9h2v1H7V9Z" fill="#c98276"/><path d="M12 1H5v1H4v1H3v1H2v2h2V5h1V4h1V3h5v1h1v1h1v1h1V3h-1V2h-1V1ZM13 8h1v6h-1v-1H9v-1h3v-1h1V8ZM2 8h1v3h1v1h3v1H3v1H2V8Z" fill="#a78961"/></g></svg>