<svg xmlns="http://www.w3.org/2000/svg" viewBox="0 0 200 200" fill="none" shape-rendering="auto"><metadata xmlns:rdf="http://www.w3.org/1999/02/22-rdf-syntax-ns#" xmlns:xsi="http://www.w3.org/2001/XMLSchema-instance" xmlns:dc="http://purl.org/dc/elements/1.1/" xmlns:dcterms="http://purl.org/dc/terms/"><rdf:RDF><rdf:Description><dc:title>Fun Emoji Set</dc:title><dc:creator>Davis Uche</dc:creator><dc:source xsi:type="dcterms:URI">https://www.figma.com/community/file/968125295144990435</dc:source><dcterms:license xsi:type="dcterms:URI">https://creativecommons.org/licenses/by/4.0/</dcterms:license><dc:rights>Remix of „Fun Emoji Set” (https://www.figma.com/community/file/968125295144990435) by „Davis Uche”, licensed under „CC BY 4.0” (https://creativecommons.org/licenses/by/4.0/)</dc:rights></rdf:Description></rdf:RDF></metadata><mask id="viewboxMask"><rect width="200" height="200" rx="0" ry="0" x="0" y="0" fill="#fff" /></mask><g mask="url(#viewboxMask)"><g transform="matrix(1.5625 0 0 1.5625 37.5 110.94)"><path fill-rule="evenodd" clip-rule="evenodd" d="M103.74-7.96V.67c-.16.12-.33.22-.5.3L87.07 9.47l-1.89 21.13c-.47 5.03-3.69 9.67-6.32 13.6L89.37 53a29.19 29.19 0 0 1-7.57 3.33l-7.9-6.68a27.93 27.93 0 0 1-15.79 6.56l-7.75.64c-7.43.63-14.9.63-22.33 0l-7.97-.67a28 28 0 0 1-14.9-5.88l-7.04 5.97a30.02 30.02 0 0 1-7.52-3.3l9.27-7.9C-3.22 40.97-6.7 36-7.2 30.57L-9.17 8.54l-14.15-7.5c-.22-.1-.43-.23-.61-.4v-8.62l19.75 9.9h88.26l19.66-9.87Z" fill="#000" style="mix-blend-mode:soft-light" opacity=".4"/><g fill="#ECF5F8"><path fill-rule="evenodd" clip-rule="evenodd" d="m58.05 53.27-7.77.65c-7.42.62-14.88.62-22.3 0L20 53.24a28.05 28.05 0 0 1-17.48-8.1 28.29 28.29 0 0 1-8.2-17.5L-8.24-1.02H86.3l-2.56 28.67a28.32 28.32 0 0 1-8.2 17.5 28.08 28.08 0 0 1-17.48 8.12Z"/><path fill-rule="evenodd" clip-rule="evenodd" d="M103.26-1.96 82.92 7.8l-3.19-6.66 24.08-12.06a.82.82 0 0 1 1.19.75l-.12 5.76a2.86 2.86 0 0 1-1.62 2.44ZM-23.26-1.96-2.92 7.8.27 1.15-23.81-10.9a.82.82 0 0 0-1.19.75l.12 5.76a2.86 2.86 0 0 0 1.62 2.44Z"/><path d="m74.16 37.33 17 14.37a.87.87 0 0 1 .11 1.22l-1.88 2.25a3.6 3.6 0 0 1-5.1.44L69.4 43.02l4.71-5.62.06-.07ZM10.25 43.07l-14.9 12.6a3.6 3.6 0 0 1-5.1-.45l-1.88-2.25a.87.87 0 0 1 .1-1.22L5.48 37.38l4.71 5.63.05.06Z"/></g><path fill-rule="evenodd" clip-rule="evenodd" d="M39.1 48.58c-3.34 0-6.72-.13-10.04-.41l-7.42-.62A22.24 22.24 0 0 1 7.8 41.1c-3.71-3.71-6-8.63-6.47-13.87L-.73 4.78h79.51l-2.02 22.46a22.41 22.41 0 0 1-6.48 13.89c-3.72 3.71-8.63 5.99-13.87 6.42l-7.22.62c-3.35.34-6.75.41-10.1.41Z" fill="#E1EFF5"/><path d="M4.68 10.04c10.38 9.16 57.66 9.76 69.09 0a333.93 333.93 0 0 1-69.09 0ZM6.44 22.82c9.85 9.15 54.73 9.76 65.57 0a301.86 301.86 0 0 1-65.56 0ZM9.37 35.59c8.95 9.15 49.84 9.76 59.71 0a250.49 250.49 0 0 1-59.71 0Z" style="mix-blend-mode:soft-light" opacity=".8" fill="#000"/></g><g transform="matrix(1.5625 0 0 1.5625 31.25 59.38)"><path d="M87.22 13.98c0-7.2-5.82-13.04-13-13.04s-13 5.84-13 13.04v3.92c0 7.2 5.82 13.04 13 13.04s13-5.83 13-13.04v-3.92Z" fill="#000"/><path d="M70 10.48a2.29 2.29 0 1 0 0-4.58 2.29 2.29 0 0 0 0 4.58Z" fill="#fff"/><path opacity=".1" d="M74.24 19.3a5.32 5.32 0 1 0 0-10.66 5.32 5.32 0 0 0 0 10.65Z" fill="#fff"/><path d="M26.22 13.98c0-7.2-5.82-13.04-13-13.04s-13 5.84-13 13.04v3.92c0 7.2 5.82 13.04 13 13.04s13-5.83 13-13.04v-3.92Z" fill="#000"/><path d="M9 10.48A2.29 2.29 0 1 0 9 5.9a2.29 2.29 0 0 0 0 4.58Z" fill="#fff"/><path opacity=".1" d="M13.24 19.3a5.32 5.32 0 1 0 0-10.66 5.32 5.32 0 0 0 0 10.65Z" fill="#fff"/><path d="M84.33-5.7H65.45C58.63-5.7 53.1-.2 53.1 6.6v18.8c0 6.79 5.52 12.3 12.34 12.3h18.88c6.81 0 12.34-5.51 12.34-12.3V6.6c0-6.8-5.53-12.3-12.34-12.3Z" fill="url(#eyesGlasses-a)"/><path d="M21.3-5.7H2.42C-4.4-5.7-9.92-.2-9.92 6.6v18.8c0 6.79 5.52 12.3 12.34 12.3H21.3c6.81 0 12.34-5.51 12.34-12.3V6.6c0-6.8-5.53-12.3-12.34-12.3Z" fill="url(#eyesGlasses-b)"/><g fill="#000"><path d="M21.06 40.12H2.18A14.83 14.83 0 0 1-8.2 35.81a14.71 14.71 0 0 1-4.33-10.34V6.6c.02-3.87 1.58-7.59 4.34-10.34A14.85 14.85 0 0 1 2.18-8.06h18.88c3.92.02 7.66 1.58 10.42 4.35 2.76 2.76 4.31 6.5 4.31 10.4v18.7A14.62 14.62 0 0 1 26.71 39c-1.79.74-3.7 1.12-5.65 1.12ZM2.18-3.26A9.96 9.96 0 0 0-7 2.83a9.85 9.85 0 0 0-.76 3.78v18.8a9.85 9.85 0 0 0 9.9 9.86h18.92a9.93 9.93 0 0 0 9.9-9.86V6.6a9.87 9.87 0 0 0-9.9-9.86H2.18ZM84.33 40.12H65.46a14.83 14.83 0 0 1-10.39-4.31 14.71 14.71 0 0 1-4.33-10.34V6.6c.02-3.87 1.58-7.59 4.34-10.34a14.85 14.85 0 0 1 10.38-4.32h18.87c3.9.03 7.65 1.59 10.41 4.35s4.31 6.5 4.32 10.4v18.7c0 3.9-1.56 7.64-4.32 10.4a14.83 14.83 0 0 1-10.41 4.33ZM65.46-3.26a9.93 9.93 0 0 0-9.9 9.87v18.8a9.85 9.85 0 0 0 9.9 9.86h18.87a9.93 9.93 0 0 0 9.9-9.86V6.6a9.85 9.85 0 0 0-9.9-9.86H65.46Z"/><path d="M53.1 10.64H33.4v4.89h19.7v-4.89Z"/></g><defs><linearGradient id="eyesGlasses-a" x1="2332.67" y1="1561.82" x2="3621.21" y2="1561.82" gradientUnits="userSpaceOnUse"><stop stop-color="#fff" stop-opacity=".3"/><stop offset=".5" stop-color="#969696" stop-opacity=".2"/><stop offset="1" stop-color="#fff" stop-opacity=".3"/></linearGradient><linearGradient id="eyesGlasses-b" x1="2269.64" y1="1561.82" x2="3558.18" y2="1561.82" gradientUnits="userSpaceOnUse"><stop stop-color="#fff" stop-opacity=".3"/><stop offset=".5" stop-color="#969696" stop-opacity=".2"/><stop offset="1" stop-color="#fff" stop-opacity=".3"/></linearGradient></defs></g></g></svg>